<?xml version="1.0" encoding="UTF-8"?>
<svg id="Camada_1" data-name="Camada 1" xmlns="http://www.w3.org/2000/svg" viewBox="0 0 1080 1080">
  <path d="M407.66,989.88l-10.26-.02c1.25-1.76,3.05-3.08,4.65-3.11,2.4-.04,4.35,1.02,5.61,3.13Z"/>
  <path d="M849.61,989.88h-10.06c1.09-1.96,2.88-3.07,4.83-3.17s3.86.86,5.23,3.17Z"/>
  <path d="M454.23,989.56l-9.17.44,1.15-1.41c3.02.15,4.83-.27,8.02.97Z"/>
  <path d="M535.6,989.56l-9.17.44,1.15-1.41c3.02.15,4.83-.27,8.02.97Z"/>
  <path d="M482.81,508.36l-62.14,75.03c-2.44,26.72-11.57,46.75-25.17,69.88-15.66,26.62-39.67,48.99-64.94,66.65l-1.86,7.86c-.62,2.61-2.35,5.22-4.23,6.11-2.97,1.4-5.67.48-8.25-.97-8.51,6.19-17.64,10.81-28.06,11.94-4.97,5.87-10.61,10.44-17.05,14.79-29.65,20.05-68.23,30.1-103.03,38.25-7.37,1.73-14.27,3.96-20.02,8.64-14.23,11.57-12.33,29.92-1.1,42.35,21.38,23.67,54.92,28.81,84.73,18.04,9.03-3.26,16.67-8.41,24.12-14.34,4.08-3.25,10.03-1.47,12.37,2.38,3.06,5.04,1.13,9.53-3.19,12.92-25.59,20.05-58.98,27.41-90.36,18.17-23.99-7.06-48.37-24.91-53.39-50.14-3.85-19.36,5.33-38.22,22.71-47.59,8.89-4.79,18.23-7.54,28.21-9.72,19.13-4.17,37.46-9.41,55.74-16.36,17.21-6.55,35.42-15.78,47.86-29.2-.53-10.09,1.69-19.12,5.59-28.09,2.18-5,4.93-9.39,8.53-13.52,8.45-22.34,23.91-47.63,39.34-65.93,13.57-16.09,30.1-29.04,47.9-40.1,9.41-5.66,18.66-9.73,29.3-12.31l59.99-72.11-150.24-67.82c-11.41-5.15-17.07-17.36-16-29.29,1.25-13.86,11.43-24.08,24.84-25.83l11.87-13.54,85.58-95.28c3.18-3.54,5.91-7.31,9.77-9.96,9.94-6.82,21.76-10.98,33.63-12.82,2.73-.42,2.9-.15,4.68-2.17l52.09-59.2,80.86-92.1c2.61-2.97,5.71-3.9,8.76-1.94,2.83,1.82,4.14,6.31,1.62,9.18l-42.32,48.19-92.88,105.59c.07,8.04-1.55,15.41-3.58,23.02-1.62,6.06-3.69,11.54-7.08,16.87l-42.08,49.66-45.87,54.52,95.42,43.19,29.62,13.28,52.16-62.78,16.37-19.92,1.98-13.04c2.16-9.44,4.15-18.52,7.48-27.61,2.22-6.05,7.19-10.41,12.77-13.58,10.45-5.93,21.19-10.49,32.51-14.68l3.57-.78,175.05-210.61c2.44-2.94,7.24-1.02,8.8,1.06,2.22,2.98,1.95,5.98-.55,8.98l-57.01,68.28-115.82,139.78c-1.95,12.5-4.28,24.43-7.5,36.52-4.23,15.92-15.81,21.52-29.79,28.49l-17.87,8.07-65.65,79.21,113.32,51.05,88.84-132.11c6.89-9.03,21.58-16.31,32.37-20.55,1.89-.74,4.14-.86,6.23-1.04l158.5-222.48,26.73-37.53c2.2-3.09,5.57-4.38,8.67-2.48s4.25,6.05,1.85,9.41l-141.51,198.43-43.36,61.17c1.52,10.46-1.27,33.32-5.74,40.41l-68.49,108.73-13.43,21.82c12.74,11.52,13.58,31.63,1.04,43.63-7.85,7.51-19.67,10.53-30.02,5.89l-152.28-68.32-21.5-9.59ZM363.14,390.6l28.42-33.75,63.51-75.2c2.19-4.92,3.33-9.67,4.86-15.36l-10.12,3.33c-3.31,1.09-6.43,3.16-8.82,5.78l-25.73,28.2-70.54,78.77,18.43,8.23ZM611.93,351.27c2.74-2,4.44-4.23,5.47-7.19l5.02-20.13-18.31,8.73c-2.82,1.35-5.37,4.23-6.11,7.29l-5.11,21.05,19.04-9.75ZM669.5,528.5l82.94-131.23c1.99-5.87,2.74-11.24,3.37-17.24-5.82,2.55-11.68,4.8-16.29,9.24l-68.66,101.83-19.54,29.26,18.2,8.13ZM672.83,568.59c3.47-2.25,5.27-6.24,4.81-10.31-.36-3.13-2.14-7.43-6-9.17l-127.69-57.51-210.3-94.76c-4.22-1.9-8.8-1.24-11.96,1.51-3.47,3.01-4.42,7.43-3.31,11.79.98,3.88,3.7,6.21,7.88,8.09l197.24,88.89,136.29,61.18c4.42,1.98,8.57,3.18,13.04.29ZM380.06,644.21c10.51-15.74,18.05-32.64,21.47-51.35-17.29,7.34-32.71,17.76-45.97,30.79,11.45,2.83,20.12,10.22,24.49,20.56ZM302.81,720.89l13.62-10.19,5.94-6.4c15.64-10.89,29.73-23.37,42.2-37.8,3.08-7.74,1-15.76-4.69-21.21-5.68-5.13-14.3-7.15-21.47-3.05-2.72,2.37-5.08,6.03-7.21,9.2-8.93,13.3-16.58,26.92-23.34,41.43-.28,4.68-2.43,8.39-5.72,11.48-5.05,6.16-7.38,13.36-8.65,21.19,3.45-1.37,6.53-2.57,9.32-4.65Z"/>
  <path d="M565,970.71c-14.61,3.98-30.19.67-41.22-10.03l-36.73-39.53c-4.3-4.62-7.85-9.31-9.75-15.5-3.51-11.42-3.6-24.66,2.35-35.48,11.9-21.62,26.05-41.44,41.27-60.9,44.62-57.03,107.17-116.7,163.61-162.48,51.09-41.44,114.9-85.26,175.13-111.1,7.61-3.27,15.5-3.92,23.58-3,11.41,1.3,20.93,7.36,28.12,16.11l31.85,33.6c3.77,3.97,7.45,7.76,10.26,12.38,9.21,15.13,7.7,33.41-2.01,47.98-16.52,24.79-34.59,48.06-54.27,70.52-23.16,26.42-47.19,51.74-72.84,75.83-25.75,24.18-52.08,47.51-79.61,69.66-47.88,38.54-104.31,77.81-159.67,103.99-6.71,3.17-12.57,5.91-20.07,7.96ZM581.53,945.13l30.47-16.02,46.53-28.67,34.08-23.56c67.63-49.45,137.03-112.83,192.07-176.05l35.1-43.25,17.43-25.02c6.24-8.96,7.48-22.69-.74-31.27l-44.29-46.21c-6-6.26-17.7-6.29-25.45-3.07-19.3,8.02-37.18,17.41-55.3,27.86-37.67,21.74-73.29,46.52-107.43,73.6-57.57,45.65-114.86,99.82-161.46,156.63-17.32,21.11-33.04,42.82-46.64,66.46-4.84,8.41-4.92,19.96.54,27.75l17.62,20.39,18.14,19.81c7.7,8.4,18.64,12.1,29.86,8.57l19.46-7.95Z"/>
  <path d="M672.33,861.98c-9.35,23.38-36.98,36.87-58.31,23.42-10.78-6.79-16.56-18.73-14.74-31-10.62-.05-20.4-4.69-26.45-12.4-6.8-8.65-9.26-19.7-6.04-30.34,4.34-14.37,15.78-25.77,30.03-30.41,15.92-5.18,32.82,1.86,40.69,16.25,3.24,5.92,4.11,12.22,3.16,18.43,10.49-.51,19.43,4.22,26.05,11.83,8.09,9.3,10.42,22.19,5.62,34.2ZM611.81,830.81l8.63-8.81c4.66-5.94,4.01-13.77-.99-19.32-4.96-5.52-12.71-6.75-19.79-3.76-5.71,2.41-10.52,6.86-13.95,12.16-3.53,5.48-3.82,12.82-.12,18.18,6.23,9.04,18.66,9.26,26.22,1.55ZM653.4,861.05c4.99-6.87,5.02-16.53-.88-22.81-5.42-5.77-14.91-6.31-20.7-1.26l-9.51,8.29c-7.2,6.28-8.08,17.31-.58,23.81,9.77,8.45,23.83,2.78,31.67-8.02Z"/>
  <path d="M833.04,724.02c-13.5,4.08-27.16.13-36.34-9.72-6.46-6.92-9.36-15.83-7.92-25.27-11.86.1-22.84-6.2-28.84-15.81-6.56-10.51-6.76-23.54-.77-34.38,5.2-9.4,13.43-16.97,23.09-21.42,17.2-7.91,37.1-1.13,45.66,15.45,2.96,5.73,3.83,11.66,3.18,17.96,13.07.07,24.16,7.22,30.13,18.51,11.29,21.34-4.87,47.64-28.19,54.69ZM812.11,653.89c2.29-4.6,1.65-10.01-1.06-14.61-2.09-3.53-6.26-6.38-11.09-7.13-6.07-.94-11.56,1.24-16.29,4.89-4.28,3.31-7.92,7.16-9.71,12.25-2.09,5.95-1.28,11.87,2.56,16.36s9.42,6.37,15.45,5.2c6.68-1.29,17.02-10.72,20.13-16.97ZM836.21,703.07c3.45-2.71,6.64-5.74,8.72-9.57,3.09-5.68,3.37-12.6-.39-18.02-4.83-6.97-14.86-9.01-22.1-4.59l-7.72,6.36c-4.52,3.72-7.74,8.42-8.18,14.36-.51,6.99,3.53,13.11,10.35,15.34,6.6,2.17,13.86.42,19.32-3.88Z"/>
</svg>