<?xml version="1.0" encoding="UTF-8"?>
<svg id="Camada_1" data-name="Camada 1" xmlns="http://www.w3.org/2000/svg" viewBox="0 0 1080 1080">
  <g>
    <path d="M181.66,873.24l25.37-26.59,26.24-27.49,21.6-22.68,26.26-27.5,28.63-29.87,21.98-22.22c2.18-2.2,9.19-.33,10.8,1.9,1.62,2.22,3.29,8.32.8,10.94l-85,89.37-80.66,84.09c-3.18,3.32-9.28,2.08-11.92-.26-3.11-2.76-4.02-8.73-.7-12.22l16.6-17.47Z"/>
    <path d="M774.62,665.55l30.47-32.19,26.88-28.08,25.11-26.32,28.62-29.88,23.69-24.28c3-3.08,8.93-1.25,11.17,1.04,2.92,2.97,3.6,8.64.36,12.04l-97.22,102.03-36.22,37.94c-3.75,3.93-9.19,4.62-13.01,1.06s-3.86-9.11.14-13.34Z"/>
    <path d="M186.42,770.48l27.75-28.97,23.96-25.11,33.45-34.61,23.94-25.1c3.59-3.77,6.89-5.97,12.02-4.11,3.35,1.22,7.58,9.17,3.73,13.2l-131.63,137.71c-3.86,4.04-8.33,4.63-12.28,1.9s-5.47-9.24-1.62-13.27l20.69-21.65Z"/>
    <path d="M758.42,577.06l20.97-21.99,25.1-26.32,34.62-35.8c4.08-4.22,10.3-5.58,14.19-.74,3.62,4.5,1.95,9.37-2.34,13.85l-77.52,81.11c-3.92,4.11-7.79,6.02-12.55,3.46s-6.53-9.32-2.47-13.58Z"/>
    <path d="M310.9,812.25l18.6-20.01,21.08-21.89c3.87-4.02,9.8-3.85,13-.62,4.59,4.62,2.73,9.89-.99,13.83l-35.9,38.12c-3.6,3.82-7.13,5.41-11.98,3.61-3.61-1.34-7.85-8.71-3.82-13.04Z"/>
    <g>
      <path d="M394.42,236.3l15.74-17.02,29.83-31.06,23.37-24.48c3.32-3.48,8.32-3.64,11.79-1.36,2.65,1.74,5.59,8.97,2.43,12.27l-68.72,71.89c-3.37,3.52-7.82,4.3-11.35,2.51-3.82-1.94-6.9-8.64-3.1-12.75Z"/>
      <path d="M442.09,267.29l22.44-23.54,30.83-32.33c3.47-3.64,9.91-4.07,13.22-.55,2.9,3.08,3.97,8.96.25,12.83l-53.79,55.92c-3.41,3.54-9.2,2.94-12.42-.08-2.5-2.35-4.21-8.38-.53-12.24Z"/>
      <path d="M307.71,543.42l-16.96-45.49-152.92-59.04-24.52,23.66c-3.72,3.59-8.98,5.41-14.08,4.04-3.86-1.03-8.64-5.51-9.6-10.61-4.63-24.51,11.01-52.06,27.27-71.12,19.33-22.66,42.73-40.02,68.88-54.15l25-12.01,7.71-24.51c.32-1.03,2.17-3.18,3.13-3.59,1.16-.49,3.82.06,5.08.81l24.41,14.6c50.7-11.37,112.62-10.63,156.28,17.59,14.52,9.39,28.78,26.44,19.06,37.8-2.77,3.24-8.36,5.05-13.41,4.34l-32.44-4.5-77.33,131.98,16.12,45.26c.99,2.79-1.12,7.19-3.22,7.91-2.87.97-7.2.36-8.44-2.98ZM236.31,309.99l-9.8-5.86-3.07,9.93,12.86-4.07ZM300.09,473.25l66.35-112.88c-29.84-.4-58.81,2.19-86.94,8.77l7.25,35.7,13.34,68.41ZM284.68,463.57l-17.28-91.67-28.45,9.34,45.73,82.33ZM278.24,479.22l-51.43-93.44c-28.13,12.16-53.86,25.68-77.38,44.3l33.81,12.71,95,36.43ZM321.37,321.36c-24.2-1.26-47.76,1.81-71.28,7.89-34.28,8.85-66.27,24.8-94.47,46.24-19.52,14.84-42.8,38.84-50.41,62.27,12.66-10.45,24.6-19.74,38.15-28.32,75.7-47.92,169.43-75.47,259.29-61.94-21.19-18.07-54.4-24.73-81.27-26.13Z"/>
      <path d="M972.28,502.38c-9.52,3.84-18.6.45-23.8-7.89-16.75-26.87-35.63-51.85-55.65-76.49l-270.86,37.16-59.31,74.34c-2.7,3.38-9.62.98-11.63-1.39-2.49-2.95-3.47-8.55-.63-12.12l57.39-72.18-26.81-264.2c-28.73-14.1-58.49-26.69-88.97-37-6.87-2.32-10.66-8.57-10.45-15.28.14-10.22,5.96-18.04,14.75-22.83,26.4-14.37,62.31-16.07,92.6-13.52,71.76,6.04,144.72,37.44,205.67,76.76l66.75-24.35c2.5-.91,7.07-.52,9.16.64,2.09,1.16,4.88,5.28,4.61,8.36l-6.48,74.53c39.83,37.93,73.27,81.23,96.89,131.16,17.44,36.86,33.61,88.73,21.52,127.18-2.41,7.65-7.06,14.04-14.73,17.14ZM850.93,210.88l4.71-45.25-41.93,15.68c13.6,8.99,25.33,18.69,37.23,29.57ZM698.64,246.72c-32.91-21.15-64.65-40.4-98.75-58.01l22.45,213.31,76.3-155.3ZM741.95,277.47l-27.98-20.1-65.17,134.69,93.15-114.58ZM778.59,306.11l-21.79-17.36-90.18,112.4,111.97-95.04ZM877.75,401.4c-27-30.47-54.66-57.26-84.44-83.29l-131.78,112.63,216.22-29.34ZM910.38,333.17c-21.89-35.8-49.35-66.44-81.07-94.09-46.21-40.29-100.31-70.37-158.55-89.66-40.31-13.35-97.39-23.11-138.31-11.03,27.32,7.85,52.29,15.8,77.81,26.75,142.57,61.2,273.71,168.09,342.38,309.7,5.06-47.97-17.95-101.92-42.26-141.67Z"/>
    </g>
  </g>
  <path d="M479.26,900.24c-3.35-.1-7.31.79-8.6,2.2l-76.78,84.29c-4.01,4.4-10.36,4.15-13.81.53-4.14-4.34-2.62-9.57,1.5-14.07l77.87-85.1-41.19-267.99-61.03-21.6c-9.58-3.39-13.25-14.28-9.16-22.98,3.52-8.16,9.73-13.67,18.13-16.71,11.99-4.34,24.29-7.25,37.44-7.89,41.78-2.01,82.65,5.75,122.31,20.05,72.03,25.97,136.6,69.15,188.84,125.06,31.49,33.7,57.77,71.28,76.52,113.39,18.54,41.63,30.93,90.6,22.98,135.43-3.23,18.25-14.59,33.47-29.48,28.67-4.73-1.52-9.51-6.13-12.07-11.71l-24.49-53.42-268.99-8.16ZM751.89,789.22c-20.51-36.61-46.78-68.28-77.41-97.12-44.64-42.03-97.54-74.16-155.01-95.65-39.77-14.88-96.43-26.81-137.79-16.31,27,8.89,51.64,17.78,76.73,29.71,140.12,66.61,267.08,178.44,330.29,322.57,6.89-47.74-14.04-102.53-36.81-143.19ZM582.32,715.63c-45.87-35.09-93.06-63.75-144.55-86.86l36.34,234.12,108.21-147.26ZM624.78,752.07l-28.15-25.09-95.29,131.26,123.44-106.16ZM737.84,889.9c-27.48-46.83-60.65-88.54-99.55-125.85l-135.62,118.32,235.16,7.53Z"/>
</svg>