<?xml version="1.0" encoding="UTF-8"?>
<svg id="Camada_1" data-name="Camada 1" xmlns="http://www.w3.org/2000/svg" viewBox="0 0 1080 1080">
  <path d="M345.94,890.28c-4.2-.3-6.24-4.51-6.7-6.8-.55-2.72.28-7.45,2.74-9.23l39.35-28.47-42.75-52.74c-4.4-.36-9.26-.4-13.93.31l-48.39,7.31c-13.26,2-26.16,2.76-39.52,1.52-36.96-3.43-55.15-29.47-75.08-57.86-12.35-17.59-23.52-35.09-34.21-53.71-6.39-11.13-11.1-22.43-14.15-34.8-5.17-24.34-.44-47.89,20.03-62.41-27.44-20.46-29.17-60.52-3.67-83.06,21.3-18.83,54.49-17.19,73.76,3.44,22.33,23.9,18.65,60.46-6.84,80l10.46,2.71,43.14,10.6c17.47,4.29,19.24,5.26,36.17-.51,18.48-6.3,35.66-12.92,54.58-20.94l-12.66-12c-4.77-4.52-8.29-14.21-2.71-19.8l49.29-49.31c2.11-2.11,5.33-3.08,8.15-3.52l26.8-26.11,40.06-39.12,49.8-48.81,38.15-37.18,43.94-42.97,27.19-26.21c.13-4.41,1-8.32,3.1-11.99,36.9-64.39,113.94-88.86,185.43-83.41,42.78,3.27,85.09,19.07,117.17,47.91,36.95,33.22,56.71,82.16,53.76,131.87-4.16,70.02-59.26,127.91-129.46,134.52l-211.54,67.87-141.33,45.11c-2.11,2.82-4.2,4.38-7.2,5.87l-54.63,27.28c-6.68,3.34-13.64,2.89-19.12-2.07l-25.28-22.86c-6.72,5.77-12.32,10.04-19.41,14.03-21.15,11.9-42.73,21.52-64.57,32.23l-28.68,18.19,12.07,18.22,25.32.72,31.75.84,12.85.82,25.41,1.11,12.54.53c10.18-.7,17.21,3.46,24.14,10.26l45.34,44.51,39,38.19,11.06,10.37c5.47-1.38,10.9.11,16.67.12l154.82.36c5.05,1.28,7.23,10.7,3.98,13.94l-21.68,21.59c-27.22,24.22-60.48,38.96-96.62,44.03-24.27,3.4-47.37,4.62-72.09,4.74-48.83.24-96.59-1.71-145.76-5.23ZM811.49,215.38l24.38-5.5c-40.81-11.34-84.66-10.18-125.38,2.75,20.67,2.09,39.35,7.42,57.92,16.67l43.09-13.92ZM924.64,271.31c-15.19-22.22-34.97-37.83-57.7-49.29-16.88,2.01-32.33,5.52-48.46,9.79l-31.05,9.34c19.79,13.43,34.61,30.17,46.35,50.27l90.86-20.1ZM729.83,247.89l16.31-8.9c-28.25-11.23-62.35-12.09-85.98,2.11l69.68,6.79ZM703.5,476.97l117.79-31.7c18.42-49.04,23.19-98-3.06-145.23-12.34-21.77-29.57-39.19-51.73-50.8-19.08,8.02-36.13,18.19-52.51,30.49-7.85,5.9-16.16,9.78-25.23,12.77l-38.97,43.52-185.09,205.27,238.79-64.32ZM667.12,278.35c14.95-1.32,28.07-5.84,39.68-14.96l-65.12-6.52c-5.62,7.08-10.38,13.49-14.55,21.67l39.98-.19ZM891.11,359.83l59.64-2.83c.76-24.19-5.3-47.94-16.57-69.74l-92.6,20.4c7.49,18.15,11.29,35.2,12.25,53.93l9.49-.64,27.78-1.11ZM356.75,547.43l-15,14.39,6.9,6.37,13.7,12.64,13.11,11.61,69.41-45.36,85.35-94.46,141.37-156.5-45.89.11c-4.66.01-8.9-2.54-12.83-5.22l-17.42,16.88-42,41.01-50.85,49.81-52.76,51.76-44.47,43.49-14.81,14.42c-.23,2.21-.67,6.35-2.03,7.68l-31.77,31.35ZM933.93,418.78c8.03-13.75,13.49-27.67,15.65-44.25l-95.88,4.69c-.51,15.27-3.36,29.63-6.77,43.98l87-4.42ZM886.47,466.4c13.8-8.26,25.21-17.43,35.19-29.45l-80.06,4.13-15.4,40.74c22.04.76,41.92-4.87,60.27-15.42ZM448.79,613.02l23.32-11.29c4.06-1.96,8.01-1.93,12,.31l85.99-27.49,245.67-78.7c-7.15-6.54-8.68-14.83-5.43-22.98l6.09-15.29-290.06,78.19-74.91,20-67.65,44.23,19.94,18.55,12.57,11.3,32.46-16.82ZM200.19,550.5c0-19.53-15.84-35.37-35.38-35.37s-35.38,15.84-35.38,35.37,15.84,35.37,35.38,35.37,35.38-15.84,35.38-35.37ZM243.26,679.24l-5.96-11.42c-20.73-2.74-40.51-6.78-60.42-12.89-5.05-1.55-6.43-7.68-4.78-11.58,1.93-4.56,6.6-6.25,11.48-4.86,16.63,4.73,32.9,8.37,50.12,10.68,18.66,2.5,45.31,5.77,60.62-1.38l26.02-12.15,29.61-15.28c6.19-3.19,11.5-6.85,17.06-11.16l-10.25-9.66-12.7,4.19c-21.12,8.7-41.82,16.49-63.61,23.42-4.59,1.46-9.66,2.4-14.5,1.43-20.04-4-39.24-8.32-58.89-13.6l-39.39-10.57c-9.98-2.68-21.56-.68-28.74,7.14-17.81,19.39-8.1,50.48,5.23,72.11l17.41,28.24c29.27-5.81,56.96-18.81,81.69-32.68ZM266.71,670.26l-8.58-.86,1.82,4.51,6.76-3.65ZM260.55,707.54l-8.66-13.04c-25.92,15.35-52.13,26.43-80.03,33.55l27.79,36.83c14.86-26.09,36.41-41.57,60.89-57.33ZM451.21,810.77l29.36.12-45.47-44.78-36.42-35.95c-2.14-2.12-5.44-4.73-8.51-4.85l-51.93-2.02,22.83,4.4c12.83,2.47,22.43,9.75,28.88,21.1l26.1,45.94,10.71,18.14c8.69-4.31,15.79-2.13,24.46-2.09ZM356.53,786.52l18.66,23.78,20.58,25.09,16.41-11.37-38.59-67.7c-3.06-5.36-7.31-8.78-13.62-10.09l-95.39-19.82c-20.27,12.81-40.27,28.41-50.66,50.1,6.34,4.06,12.48,6.09,19.48,6.87l14.05,1.55,26.5-2,56.36-8.15c11.16-1.61,19.52,3.21,26.22,11.74ZM508.87,877.21l16.2-.92,12.72-.67,18.62-2.02c36.72-3.98,70.78-19.48,97.72-44.84l-218.58-.12-63.32,45.59,23.2.86,22.49.98,27.47,1.01,63.48.14Z"/>
</svg>