<?xml version="1.0" encoding="UTF-8"?>
<svg id="Camada_1" data-name="Camada 1" xmlns="http://www.w3.org/2000/svg" viewBox="0 0 1080 1080">
  <path d="M416.33,938.63c-19.46,5.68-37.98,1.88-54.29-9.17-11.37-7.7-24.22-11.48-37.77-7.86l-18.85,5.04c-16.92,4.53-34.56,4.31-50.53-2.79-4.84-2.15-6.08-7.89-4.28-12.06,2-4.64,7.16-6.5,12.35-4.37,11.78,4.84,24.36,5.01,36.78,1.82l21.38-5.49c16.89-4.34,33.77-.71,48.25,9.16s30.75,13.19,47.37,6.64l25.8-10.18c11.41-4.5,23.54-5.03,35.23-3.56l-10.15-78.09-59.8,2.48c-10.81.45-20.25-5.75-24.94-13.57-5.88-9.8-5.95-20.85-.3-30.62,4.81-8.32,11.51-17.11,21.15-20.09,18.1-5.6,35.81-8.91,54.7-13.07,1.47-30.3-10.77-55.49.38-87.18l-47.81,1.63c-24.02-.51-42.91-13.84-54.46-33.89-20.1-34.92-43.97-77.88-50.67-117.21-3.93-23.06,1.09-45.41,22.45-55.91-13.69-11.25-22.81-26.42-23.93-43.53-1.38-21.15,11.55-38.55,31.99-42.75,18.37-3.77,36.12,5.19,44.15,22.14,8.78,18.53,8.56,43.06-4.05,59.76l34.99,4.37c-11.75-105.85-47.55-215.64-126.9-288.19-7.79-7.12-15.41-12.77-24.15-18.53-2.85-1.88-4.62-5.64-4.4-8.92s2.26-6.09,5.14-8.38c17.99-14.32,36.87-26.25,58.13-35.04,53.55-22.15,100.71-8.64,150.76,15.7,36.32,17.66,70.06,38.05,102.44,62.27,24.8,18.55,48.02,37.69,70.5,59.13,71.16,67.88,133.22,158.96,156.77,255.23,9.49,38.77,4.19,76.99-23.25,106.52-12.17,13.1-26.95,22.46-43.03,30.45-3.25,1.61-7.85.17-10.22-2.17l-29.22-28.93c-58.36-51.94-128.04-87.9-204.21-106.14l-19.29,21.31c-5.28,5.83-14.46,6.24-22.2,7.21l-24.59,32,14.06,25.35,81.84,17.44c15.7,3.35,29.16,10.52,38.56,23.9l19.92,27.75,51.23,74.01,176.95-27.79c8.63-1.35,16.96,4.15,20.59,9.97,4.45,7.14,4.45,16.27-.38,23.36-32.3,47.47-117.17,68.27-172.93,77.83-41.49,7.11-82.58,12.32-124.81,16.97l13.37,101.57c18.42-3.5,37.03-4.6,56.15-5.17,4.77-.71,9.33,1.32,10.94,5.22s.72,9.27-3.4,11.76l-59.46,35.85c-15.51,9.35-31.95,15.4-50.16,17.14l-37.78,1.05c-4.29.12-7.82-3.97-8.47-7.31-.81-4.13,1.16-8.05,4.83-10.44l29.27-19.12-3.9-28.26c-13.5-3.37-27.36.2-40.72,5.17l-23.1,8.59ZM380.72,129.77c1.29-8.39,5.57-14.51,11.84-19.67-21.5-3.24-42.06-.81-61.86,6.68-18.23,6.86-34.36,15.98-49.81,27.87l7.85,6.15c28.27-15.82,59.59-25.84,91.98-21.03ZM644.33,294.2l14.09-13.87-40.46-39.94c-45.12-41-94.69-75.85-149.05-103.45-18.47-9.38-36.28-17.28-56.33-22.56-2.57-.68-7.37,1.08-9.95,1.67-7.62,1.75-12.41,7.8-12.47,15.44,19.47,5.16,37.04,12.9,53.86,24.12,37.4,24.93,71.82,52.89,104.02,84.25l37.25,36.27,21.69,22.13c12.87-4.64,24.68-9.08,37.35-4.07ZM496.89,219.55c-21.2-18.73-42.94-35.16-66.29-50.63-8.99-5.07-17.53-9.41-26.82-13.72-11.15-4.15-22.07-7.27-33.87-7.84l-48.79,34.95c26.8,30.51,47.4,64.1,63.85,101.36l111.91-64.12ZM314.9,175.54l37.89-27.36c-18.67,1.36-33.98,8.11-49.84,15.64l11.96,11.72ZM592.75,310.47c-29.32-30.64-57.63-57.81-87.87-84.78l-116.04,66.5c18.89,45.44,30.76,91.91,37.73,140.24l166.18-121.96ZM762.11,509.94c9.79-2.79,13.62-12.66,16.8-23.01-20.84-74.41-63.31-141.5-114.14-199.38l-13.7,12.78c5.78,12.76.78,26.12-5.7,38.5,23.55,26.92,46.31,52.89,67.53,81.15s39.4,57.36,49.21,89.97ZM622.73,314.83l13.43-13.21c-8.12-.51-14.44,1.04-21.58,4.14l8.15,9.07ZM638.89,331.31c3.2-7.95,6.83-14.88,4.4-23.25l-13.93,13.65,9.53,9.61ZM522.88,410.6l16.37-15.89,26.91-25.85,25.87-24.83,17.06-16.37c-1.54-1.78-2.8-2.82-4.43-3.26l-174.98,128.45.57,9.19,9.25.87,57.81-48.86c7.36-6.22,16.45-7.34,25.56-3.44ZM530.94,415.99l.45,2.1,96.67-69.98-12.62-13.92-29.5,28.56-24.92,23.79-30.07,29.46ZM503.75,477.59c28.14,7.92,53.58,16.2,78.92,27.87l115.06-74.92c-18.45-24.2-37.38-47.04-57.3-68.94l-104.76,75.79c-1.38,5.29-3.87,9.04-7.27,12.83l-24.66,27.36ZM350.29,448.59c6.95.08,12.43-3.23,14.91-9.46,4.57-11.5,3.9-25.09-1.81-36.09-5.16-9.93-15.7-13.2-25.86-10.15-8.05,2.42-13.35,8.04-14.48,16.56-1.45,10.95,2.73,20.88,9.63,29.31,4.42,5.39,9.54,9.72,17.61,9.82ZM362.11,605.55l53.02-28.05c-9.68-17.45-17.76-34.61-25.74-52.77l-26.19,1.27c-5.29.06-9.23-3.69-9.64-8.58-.32-3.82,2.55-9.6,7.72-9.87l89.33-4.62c4.44-.23,7.94-2.35,10.97-5.72l55.32-61.53c1.38-1.53.86-5.83-.2-7.19s-5.35-2.18-6.89-.88l-56.73,47.7c-2.61,2.19-6.54,6.65-10.22,6.31l-48.14-4.48-39.82-4.71c-6.53-.77-13.97,1.23-19.45,4.34-9.12,5.17-12.27,14.57-12.39,24.84.46,14.09,4.25,27.06,8.91,40.52,8.29,21.93,18.44,42.69,30.15,63.41ZM746.18,553.7c1.7-12.74,1.27-24.21-1.44-36.04-4.22-15.05-9.92-28.88-17.52-42.5l-24.14-36.99-110.44,71.82c41.86,20.24,79.82,45.5,114.67,76.65l38.87-32.94ZM750.53,598.81c20.38-14.57,32.66-36.89,34.65-61.65.69-11.47-.15-22.2-2.68-33.92-3.77,7.96-9.8,13.47-18.43,15.93,2.91,16.62,2.37,32.66-1.98,48.7l-11.55,30.95ZM418.74,544.28l17.03-21.87-26.73,1.29,9.7,20.59ZM725.59,604.2c7.31-12.04,12.55-22.37,16.33-34.66l-27.49,23.32,11.17,11.35ZM584.1,715.09l10.4,12.95,14.59-2.51-64.81-93.12c-6.87-9.79-15.87-15.01-27.44-17.48l-83.25-17.82c-3.32-.71-6.34-2.39-8.92-4.05l-53.17,28.26c7.95,18.77,25.49,28.98,45.69,27.89l88.82-4.81c12-.65,20.88,5.17,26.43,15.35,5.95,10.92,13.34,20.61,22.63,29.03l29.03,26.31ZM477.28,749.15l12.53-2.57,13.37-83.53-24.04,1.3c-6.88,14.8-7.19,30.76-5.58,47.02l3.73,37.79ZM573.83,731.38c-7.23-8.73-14.61-14.69-22.4-21.42-12.53-9.98-22.38-21.39-31.68-34.9l-10.76,68.03,64.84-11.7ZM408.71,812c85.06-2.98,168.51-11.29,251.89-26.38,30.33-5.49,59.39-12.94,87.71-24.23,22.01-8.78,50.86-24.28,62.96-43.65.47-.75.75-3.67-.06-3.93l-3.82-1.21-103.06,16.34-209.72,35.6c-28.83,4.89-56.22,11.09-84.33,18.38-5.41,1.4-17.8,14.36-11.55,24.55,1.45,2.36,5.39,4.7,9.98,4.54ZM525.69,940.68l-15.12-116.22-24.79,1.94,15.12,115,24.79-.72ZM545.72,951.77l20.06-12.08-21.39,2.31,1.33,9.77ZM529.31,959.83c-18.89-1.76-24.4-1.59-37.83,10.96,13.58-.88,26.36-4.14,37.83-10.96Z"/>
</svg>