<?xml version="1.0" encoding="UTF-8"?>
<svg id="Camada_1" data-name="Camada 1" xmlns="http://www.w3.org/2000/svg" viewBox="0 0 1080 1080">
  <path d="M982.89,969.74c-53.59,18.38-121.75,22.29-178.17,19.11-136.64-7.7-274.2-47.18-394.86-110.03-26.72,9.03-55.09,14.43-80.84,4.54-10.68-4.1-21.13-12.63-19.6-22.12,1.6-9.92,18.24-12.06,28.04-24.82-26.61-17.68-51.49-35.68-75-56.59-4.58-4.07-7.12-11.25-6.92-16.58.5-13.8,14.74-22.24,30.41-24.5-3.69-10.5-1.08-20.69,7.99-27.48,5.6-4.75,13.53-5.81,21.51-5.15l93.78,7.77c-42.72-46.43-68.01-103.7-74.74-165.5-11.32-.2-22-6.63-25.38-17.88-2.88-9.58,1.31-20.42,9-26.55l16.61-13.23c4.43-91.31,43.77-172.25,117.39-227.24l-26.32-11.79c-62.09,24.97-102.68,80.33-124.63,142.59-10.62,30.11-15.45,60.98-16.79,92.83-.23,5.57-2.87,9.75-8.07,10.51-4.41.64-10.86-3.03-10.76-8.91.36-20.95,3.14-41.13,7.18-61.76,3.84-19.6,9.62-37.46,17.23-55.95,21.73-52.82,57.19-98.61,108.01-126.88-32.74-6.69-65.56-5.05-97.52,5.82-44.53,15.15-83.39,42.27-113.94,77.99-57.55,67.29-84.37,155.29-76.55,243.4,8.05,90.8,42.31,175.86,100.22,245.75,13.44,16.22,27.49,30.68,43.22,44.31l-12.69-15.82c-23.9-29.81-40.97-63.53-54.62-99.62-29.02-76.7-37.33-159.68-24.68-240.55.87-5.54,7.59-7.68,11.22-6.77,4.84,1.21,8.07,5.69,7.22,11.02-3.98,24.9-5.14,48.74-5.05,74.15.19,58.34,11.4,114.71,33.71,168.51,16.95,40.86,40.74,76.84,70.59,109.29,17.45,18.96,36.22,34.99,57.37,49.9,43.96,30.99,94.07,50.43,147.6,56.4,5.74.64,8.99,3.98,10.04,8.93.78,3.63-2.68,11.6-8.89,10.77-121.63-16.08-233.36-81.03-306.32-180.02-41.67-56.54-69.51-122.57-81.85-191.86-14.41-80.92-6.32-163.99,21.14-241.23,40.32-113.45,128-205.95,239.37-251.72,84.52-34.73,177.62-41.94,266.53-20.75,35.61,8.49,68.18,23.27,97.87,44.2,20.72,14.6,37.97,32.18,51.56,53.32,12.66,19.71,21.65,46.03,10.81,66.45-6.81,12.83-21.78,17.08-34.92,10.6-6.08-3-11.61-8.1-15.95-13.51l-19.75-24.66c-6.85-8.55-15.25-15.04-24.24-21.25l-2.14.44c2.63,11,2.82,20.65-1.08,30.39-7.72,19.31-28.93,27.68-47.96,19.01-16.68-7.6-26.95-26.67-45.89-41.58-14.01-11.03-31.6-16.54-49.27-12.76,11.16,10.65,15.82,23.2,14.97,37.11-.78,12.69-7.79,24.83-18.89,32.69-22.01,15.58-46.87,7.09-69.09-8.56-67.72,45.53-107.96,119.36-115.33,202.12l29.77-21.56,26.09-18.46c8.56-6.05,17.99-10.99,28.36-13.72l74.21-19.54c17.46-4.6,35.18-7.46,52.94-4.77l30.09,4.55c-6.07-13.95-9.56-27.39-8.9-41.87,1.48-32.35,27.55-55.85,59.74-54.53,26.62,1.09,47.74,19.65,51.52,46.39s-5.6,53.13-24.94,71.82c32.35,17.26,61.72,48.04,91.95,65.4l101.64,58.37c10.35,5.94,10.16,20.45,3.12,28.38-9.75,10.98-25.14,14.52-38.47,8.74l-31.86-13.83-44.78-19.34c-17.89-7.73-34.16-17.09-51.31-26.33l-41.16-22.17-23.4,24.62-52.97,57.66,61.13,35.29,27.74,15.6c18.56,8.72,30.22,25.02,32.77,45.75l.42,48.54-.71,52.23c78.36,28.12,156.43,62.48,222.56,113.76,20.82,16.15,39.1,33.8,55.78,54.02,2.27,2.74,4.3,7.27,3.83,10.13-.43,2.61-3.55,7.38-7.04,8.58ZM649.96,251.22c4.34,1.04,10.33.13,13.73-2.48,15.69-12-3.74-43.59,5.43-51.58,10.12-8.82,37.25,6.7,50.51,20.51,11.18,11.64,20.08,23.74,30,36.63,3.44,4.47,13.12,10.05,17.39,4.46,6.06-7.92,3.83-20.9.39-30.1-7.44-19.85-20.44-35.6-35.83-50.21-50.08-47.52-116.21-65.02-184.6-68.87-153.81-8.66-298.06,66.1-376.83,198.07-6.2,10.39-11.91,19.58-16.11,31.09,28.02-37.76,61.59-68.83,103.17-90.57,52.84-27.63,108.02-35.6,165.3-17.15,23.25,7.49,43.97,18.77,64.35,31.83,8.11,5.2,17.22,8.48,26.89,8.87,16.57.66,27.62-13.41,25.43-29.67-1.46-10.8-9.66-18.49-19.8-22.61-3.87-1.57-6.97-6.05-6.69-9.66.31-3.95,3.03-7.12,6.61-8.96,24.24-12.51,51.29-10.84,74.5,3.38,30.71,18.82,39.26,42.96,56.15,47.01ZM653.23,415.43c20.31-10.95,29.72-38.57,26.84-59.55-2.64-19.23-17.98-31.33-36.82-30.84-18.18.48-32.91,11.91-35.83,30.43-3.2,20.34,4.25,41.72,19.28,55.97,7.06,6.7,17.76,8.71,26.54,3.98ZM568.06,578.22c26.15-31.46,53.29-59.4,81.31-88.09,5.29-5.41,11.97-8.44,19.31-4.72l21.28,10.81,54.23,29.69,90.19,40.23c7.4,3.3,15.66,3.72,21.87-2.48l-83.58-47.52c-17.4-9.89-33.19-20.35-48.93-32.51l-38.93-30.08c-9.95-7.69-20.88-13.29-32.33-17.09-16.83,4.08-32.18-3.6-43.55-15.89-8.29,1.34-17.12,1.19-25.81-.71-22.65-4.97-44.44-4.4-66.81,1.44l-56.62,14.76c-17.72,4.62-32.61,10.88-47.41,21.71l-80.34,58.76c-2.33,1.71-5.76,6.11-4.59,8.17,2.87,5.1,9.4,4.97,13.93,2.18,29.3-18.02,58.03-35.61,88.38-51.98,7.93-4.28,16.31-8.4,25.21-9.54l78.52-10.06c5.37-.69,9.68,5.83,9.81,9.52.2,5.7-4.04,8.99-9.63,9.8l-11.29,1.65-42.77,76.35c18.15,13.42,39.15,21.57,61.43,23.39l27.09,2.22ZM458.55,720.6c10.59-10.51,19.65-19.77,30.75-28.26l15.67-9.37-27.28-15.68c-37.63-19.55-50.23-62.8-29.03-99.61l51.58-89.57-34.68,4.7c-9.52,1.26-18.39,3.96-26.95,8.69-29.22,16.16-57.42,32.86-85.91,50.91,6.73,67.58,36.9,131.19,88.09,175.83l17.75,2.37ZM614.68,671.92c3.35-9.83,8.11-17.31,13.86-25.26l7.36-10.17-66.89-38.71c-36.78-2.22-69.36-6.68-99.16-28.72l-8.08,15.3c-7.42,18.28-4.96,39.41,8.94,53.59,6.18,6.31,14.34,12.14,22.87,14.98,26.51,8.81,53.01,14.62,80.16,20.98l35.84,8.39,5.09-10.37ZM735.54,875.68l-40.7-27.93c-4.03-2.74-6.75-7.19-6.68-12.51l.93-72.7.24-73.77c.03-9.7-3.84-18.39-9.24-25.89-8.95-6.6-17.62-11.79-27.78-16.62-9.97,13.58-17.78,26.54-24.48,40.68,14.56,2.96,22.97,14.44,22.12,28.85-1.1,18.73.01,36.44,4.03,55.02,5.19,24.03,11.34,47.19,14.3,71.74l1.38,28.91c5.67,1.76,11.04,2.61,16.68,2.57,16.65-.13,31.7,3.9,49.19,1.65ZM453.54,833.23l-8.7-40.05c1.29-4.76,3.85-9,7.76-11.79l19.5-13.93,80.25-53.75c5.98-4.01,9.95-11.49,7.16-17.49l-31.43-8.14c-6.16,11.19-22.81,14.5-32.2,23.2-23.91,22.15-46.33,44.66-71.53,65.25-2.78,2.27-6.45,4.52-7.22,7.16s.24,8.29,1.9,10.75l19.87,29.45c3.4,5.04,9.18,8.52,14.65,9.33ZM632.83,759.99c-3.09-15.45-3.08-29.7-2.04-44.34.97-5.77-2.43-9.3-7.84-10.46l-42.3-8.51c.18,10.21-3.36,21.45-12.32,28l-18.69,13.66,83.18,21.64ZM707.09,833.53l39.5,26.55c7.52,5.05,8.13,15.32,4.94,23.21-2.47,6.12-9.86,12.95-18.52,12.38l-61.92-4.06c-13.87-.91-21.48-12.94-21.32-25.46.17-13.21-.09-25.94-2.92-38.53l-10.42-46.41-108.59-28.29-63.12,42.47,8.29,35.11c1.6,6.77-1.21,13.91-5.76,17.95-11.26,9.98-35.31.17-43.84-12.95l-22.22-34.15c-8.91-13.69-2.37-27.92,9-37.72l30.72-26.46c-40.18-5.18-79.81-9.11-120.54-11.51-5.29-.31-11.41-.1-15.75,1.24-2.43,3.27-.17,10.41,3.73,11.64l64.52,20.36c6.03,1.9,8.42,8.41,6.01,13.15-2.87,5.62-7.25,6.32-13.18,4.45l-67.85-21.41-19.83,5.6c-1.08.3-3,2.67-2.87,3.68.1.81,1.1,2.59,1.93,3.29,41.93,35.39,87.23,66.12,136.12,91.79,132.22,69.44,289.63,113.55,439.56,111.12,31.98-.52,62.26-3.56,93.11-10.68l-172.38-54.67c-5.38-1.71-8.2-5.54-8.03-10.3.13-3.69,4.5-10.54,9.97-8.81l177.57,56.15c-29.12-29.49-61.88-51.85-96.91-72.06-47.22-27.23-96.81-48.17-148.5-66.96l-.49,30.28ZM385.63,866.24l-31.85-19.43c-6.36,7.27-12.41,12.41-19.88,17.9,16.04,6.65,34.56,5.18,51.73,1.52Z"/>
  <path d="M260.72,670.85c3.3,6.27,2.47,10.92-2.52,14.38-4.6,3.18-10.54,1.55-13.42-3.94-52.75-100.4-48.37-209-4.71-311.89,1.86-4.39,9.21-4.08,11.9-1.9,3.7,2.99,5.86,7.08,3.69,12.33-39.87,96.34-44.56,196.92,5.05,291.02Z"/>
  <path d="M878.34,286.4c3.47,11.12-1.18,21.48-9.85,26.56-8.87,5.2-20.38,3.6-27.96-4.37-11.07-11.64-7.7-29.22-18.79-40.12-3.65-3.59-4.96-8.33-2.76-12.53,2.04-3.9,6.73-6.87,11.71-5.77,20.96,4.62,41.06,15.09,47.65,36.22ZM839.35,263.32l10.22,35.72c.91,3.18,8.45,5.95,11.36,4.67,10.56-4.68-.12-28.51-21.58-40.39Z"/>
  <path d="M829.84,335.97c5.55,8.66,5.94,18.45.52,26.79-4.31,6.63-12.82,11.02-23.11,9.03-7.37-1.42-14.94-8.13-17.46-17.52-2.35-8.8-4.36-17.42-8.83-25.47-1.74-3.13-2.43-6.72-1.35-9.8,4.29-12.3,36.94-3.79,50.23,16.97ZM820.57,348.72c-5.57-13.29-13.52-20.16-24.71-24.53l8.39,30.91c.95,3.5,8.73,6.77,11.93,5.89,2.74-.75,5.71-9.13,4.39-12.27Z"/>
  <path d="M625.35,839.62c5.94,1.9,8.17,6.56,7.38,11.1-.88,5.05-6,9.09-11.74,7.25l-129.09-41.21c-6.02-1.92-8.95-6.77-7.14-12.27,2.14-6.5,8.01-7.34,14.4-5.3l126.19,40.42Z"/>
</svg>