<?xml version="1.0" encoding="UTF-8"?>
<svg id="Camada_1" data-name="Camada 1" xmlns="http://www.w3.org/2000/svg" viewBox="0 0 1080 1080">
  <path d="M785.86,802.46c5.49,25.12-7.42,52.89-22.63,73.16-34.57,46.04-95.52,81.79-150.12,99.14-22.87,7.27-45.7,12.64-69.66,14.64-16.33,1.36-39.1,1.37-49.28-11.07-12.05-14.73-3.8-36.41,6.01-51.91,16.86-26.65,44.81-50.85,69.58-70.84l-63.13-28.69-89.27-38.02c-27.06-11.97-53.47-23.91-79.27-38.27-21.18-11.79-43.35-25.86-57.92-45.16-1.67.13-3.77.37-5.23.84-6.21,1.99-12.18-1.48-13.22-7.81-.94-5.76,3.86-10.83,10.18-11.13,1.63-26.12,4.27-51.08,7.34-76.77,5.46-45.71,11.99-90.77,19.51-136.26l19.84-120.09,23.75-137.48,16.65-97.39c.73-4.26,3-6.77,7.2-7.9,40.45-10.88,86.98-18.3,128.83-21.43,4.44-.33,8.22,1.62,9.91,5.78l9.62,23.75,21.35,55.17,19.07,57.55c10.37,34.28,20.08,68.11,28.32,103l17.96,76.05c12.04,55.51,21.92,110.98,28.27,167.31,6.77-1.24,13.08-1.02,19.69-.19l26.35,3.34c3.22.06,6.02-.44,8.84-1.97l37.4-20.25c-24.98-15.92-30.89-48.96-13.07-72.41,9.54-12.55,25.31-19.95,41.25-19.14,20.76,1.06,37.85,14.11,44.94,33.3,6.38,17.26,1.86,36.17-10.92,49.8,22.75,9.48,31.39,36.69,33.56,60.36,1.61,17.51.94,34.46-1.5,51.85-1.94,13.81-4.14,27.05-8.42,40.25-3.92,12.09-10.46,22.61-19.79,31.12-7.35,6.71-14.95,12.59-23.61,17.48l-29.91,16.87c-.87.5-.85.74.27.71,22.8-1.07,46.28,9.83,51.28,32.69ZM493.7,196.82l36.93,22.01c-11.87-37.6-25.84-73.28-41.12-109.07-37.09,3.19-73.19,8.96-109.23,17.83l14.76,9.13,98.65,60.09ZM570.53,363.58l-27.55-104.95-3.75-11.83-102.41-62.18-62.8-38.22-9.4,53.41-15.94,91.58,133.62,43.62,88.23,28.57ZM601.83,518.9c-4.16-29.54-9.5-57.29-15.32-85.56l-10.7-48.05-230.4-74.94-7.35,42.32-18.91,114.54,282.68,51.69ZM612.31,615.98c-4.68-8.55-4.31-16.58-.37-24.23l-7.08-52.92-181.71-33.09-107.11-19.66-10.19,67.3-11.33,90.03-3.35,39.92,257.48-54.07,63.65-13.27ZM778.43,517.38c0-16.8-13.63-30.42-30.44-30.42s-30.44,13.62-30.44,30.42,13.63,30.42,30.44,30.42,30.44-13.62,30.44-30.42ZM745.6,688.13l-14.28,4.17c-2.68.78-5.33,2.97-7.57,4.91l-43.96,37.95c-5.8,5.01-11.1,10.5-14.73,17.23-2.61,4.84-2.6,11.27-2.43,16.96l2.72,87.37c.12,3.92,3.02,6.51,6.3,7.24,2.32.52,7.35-.4,7.83-3.97l11.4-85.01c.56-4.16,4.96-7.37,8.35-9.19l52.95-28.42c15.4-8.27,34.15-23.4,37.94-40.57l5.41-24.53c4.48-25.66,6.88-62.87-3.38-86.28-3.73-8.52-10.26-15.8-19.18-18.83-24.63-8.38-60.58,23.16-88.8,32.72-5.2,1.76-11.75.82-17.09.16l-18.02-2.21-14.46-.76c-1.02-.05-3.18,1.78-3.15,2.83.08,2.79.16,6.67,1.37,9.28.86,1.86,4.74,3.43,6.84,3.98l31.92,8.36c5.52,1.45,11.01.99,16.52-.51,16.9-4.61,33.02-10.2,49.26-16.76,5.77-2.33,11.54-.96,14.04,4.94,2.15,5.06-.87,10.66-6.37,12.67l-18.36,6.7,3.27,43.71,12.49-2.48c4.99-.99,9.4,3.12,10.34,7.47,1.01,4.69-1.94,9.33-7.18,10.86ZM667.17,721.13l44.34-38.33-3.61-47.43-17.06,4.78c-5.9,1.25-11.45,1.62-17.52,1.02-13.17-2.14-25.86-5.02-38.81-9.47,4.3,57.79,5.57,114.82,3.51,173.45l6.05-3.26-.4-38.13c-.17-16.57,6.28-25.13,17.53-36.57l5.96-6.06ZM430.97,774.11l91.05,38.6,37.99,17.08c19.49,8.76,37.63,18.91,56.24,29.93l3.67-100.88c.26-41.52-.97-82.25-4.5-124.05l-73.88,15.35-240.27,50.4c3.54,4.22,7.37,7.75,11.73,11.14,11.9,9.28,24.36,16.89,37.77,24.12,26.15,14.09,52.46,26.55,80.21,38.31ZM552.11,895.15c-15.72,13.38-49.67,50.07-44.11,70.28,1.23,2.01,5.06,3.48,7.54,3.99,20.07,4.09,50.97-1.41,71.89-6.86,58.62-15.27,121.41-48.48,159.26-96.38,11.84-14.99,23.21-36.45,21.47-55.28-2.39-26.01-38.26-25.12-59.85-16.66l-9.05,63.85c-1.01,7.13-3.89,13.45-9.07,18.3-7.96,7.44-19.94,9.23-29.53,3.78-8.64-4.91-13.85-14.06-14.39-23.94l-1.75-31.95-7.58,4.21-3.5,63.69c-.36,6.46-5.4,10.65-11.06,10.09s-9.52-5.19-8.95-11.39l.87-9.42-10.72-7.52-15.73-9.21-35.73,30.41Z"/>
</svg>